<?xml version="1.0" standalone="no"?>
<!DOCTYPE svg PUBLIC "-//W3C//DTD SVG 20010904//EN"
 "http://www.w3.org/TR/2001/REC-SVG-20010904/DTD/svg10.dtd">
<svg version="1.0" xmlns="http://www.w3.org/2000/svg"
 width="209.345335pt" height="310.851320pt" viewBox="0 0 209.345335 310.851320"
 preserveAspectRatio="xMidYMid meet">
<metadata>
Created by potrace 1.12, written by Peter Selinger 2001-2015
</metadata>
<g transform="translate(-3.626953,316.965343) scale(0.100000,-0.100000)"
fill="#000000" stroke="none">
<path d="M710 3135 c-106 -44 -149 -65 -174 -88 -11 -9 -38 -23 -59 -29 -21
-6 -50 -25 -64 -42 -14 -17 -39 -38 -56 -46 -17 -8 -35 -24 -41 -35 -6 -11
-12 -22 -14 -25 -2 -2 -7 2 -11 9 -7 10 -15 3 -35 -25 -14 -21 -26 -43 -26
-47 0 -5 -18 -26 -39 -47 -21 -21 -42 -49 -46 -62 -4 -12 -14 -31 -23 -40 -12
-15 -14 -38 -9 -138 3 -66 2 -122 -2 -124 -4 -3 -3 -29 2 -59 9 -48 7 -57 -15
-93 -37 -60 -57 -140 -60 -240 l-2 -90 46 -47 c25 -26 50 -47 55 -47 17 0 40
-42 48 -88 4 -24 24 -78 46 -120 21 -42 39 -82 39 -87 0 -6 -15 -15 -32 -20
-41 -12 -49 -49 -18 -84 11 -13 20 -29 20 -35 0 -6 6 -23 14 -38 16 -31 29
-113 27 -175 -1 -24 3 -43 9 -43 5 0 10 -15 10 -32 0 -18 7 -46 15 -62 8 -15
15 -35 15 -42 0 -8 9 -22 19 -31 11 -9 17 -22 14 -28 -7 -19 53 -45 102 -45
l42 0 22 -99 c15 -66 30 -106 43 -118 11 -10 36 -42 54 -70 19 -29 38 -53 44
-53 5 0 16 -15 24 -34 8 -18 23 -40 33 -47 11 -8 28 -31 38 -52 10 -21 39 -59
65 -85 27 -26 75 -84 108 -129 33 -44 70 -84 81 -88 12 -3 21 -11 21 -16 0 -5
8 -9 18 -9 10 0 23 -5 29 -11 7 -7 46 -14 87 -17 81 -5 134 7 234 54 29 13 57
24 62 24 18 0 70 36 121 83 10 9 22 17 25 17 7 0 34 27 34 34 0 3 16 22 35 43
20 21 50 61 68 88 17 28 35 51 39 53 5 2 8 9 8 16 0 7 9 21 20 31 12 11 28 35
37 54 9 20 22 43 28 51 6 8 18 35 25 60 7 25 20 52 27 61 10 12 13 55 11 187
-3 169 -3 170 21 191 17 15 27 18 37 10 9 -7 14 -5 19 10 3 12 11 21 16 21 5
0 9 4 9 9 0 6 10 27 23 48 35 60 47 102 54 187 5 64 4 78 -7 71 -10 -6 -12 -4
-7 8 3 9 2 19 -4 23 -6 4 -6 11 2 20 15 18 -5 170 -27 213 -8 14 -14 39 -14
54 0 18 -9 36 -22 48 -26 21 -48 25 -48 8 0 -8 -4 -8 -13 0 -18 14 -16 294 2
315 16 19 11 145 -6 171 -7 11 -13 28 -13 38 0 23 -28 66 -62 95 -28 24 -78
118 -78 147 0 9 -18 54 -40 99 -22 46 -42 97 -43 114 -1 16 -4 28 -6 26 -7 -7
-41 28 -41 42 0 17 -46 62 -120 118 -68 51 -233 121 -320 135 -153 24 -232 31
-345 31 -113 -1 -125 -3 -205 -35z m281 5 c25 0 29 -5 34 -37 4 -21 9 -46 12
-56 3 -13 -2 -20 -17 -24 -12 -3 -19 -11 -16 -19 3 -7 1 -16 -4 -19 -21 -13
-8 -33 28 -48 47 -19 66 -41 59 -68 -7 -25 37 -93 71 -108 13 -6 37 -11 55
-12 18 -1 43 -5 57 -9 16 -5 -6 -7 -59 -6 -69 2 -87 6 -95 20 -6 10 -23 34
-38 53 -15 19 -28 39 -30 44 -2 7 -12 7 -29 -1 l-25 -11 20 -44 c11 -24 24
-41 28 -39 11 7 51 -6 44 -14 -4 -3 -36 -7 -74 -9 -37 -1 -73 -5 -79 -8 -7 -2
-13 2 -13 9 0 28 12 46 31 46 23 0 24 7 4 27 -12 12 -27 14 -63 8 -46 -7 -62
-17 -62 -43 0 -9 7 -11 19 -7 14 4 23 0 31 -15 15 -29 6 -38 -48 -46 -26 -4
-64 -15 -86 -26 -28 -14 -41 -17 -49 -9 -9 9 -8 16 1 29 35 49 52 78 49 87 -2
5 -19 13 -37 16 -19 4 -48 22 -67 42 -18 19 -37 37 -43 39 -19 6 47 141 92
187 64 66 107 83 197 76 41 -3 87 -5 102 -5z m419 -421 c16 -6 10 -7 -20 -3
-25 4 -52 10 -60 15 -17 10 39 1 80 -12z m-590 -228 c-8 -5 -28 -11 -45 -14
l-30 -6 30 14 c34 16 72 21 45 6z m380 -289 c0 -20 47 -37 63 -24 11 9 18 7
32 -8 10 -11 29 -20 42 -20 12 0 23 -4 23 -10 0 -5 8 -10 18 -10 36 0 70 -61
46 -85 -14 -13 -14 -16 3 -21 58 -18 60 -21 31 -34 -31 -15 -33 -23 -17 -67 7
-22 18 -32 40 -37 27 -5 42 -26 19 -26 -5 0 -10 -7 -10 -15 0 -8 5 -15 10 -15
6 0 5 -8 -2 -20 -7 -11 -19 -18 -25 -15 -7 2 -13 -2 -13 -9 0 -8 -7 -16 -15
-20 -8 -3 -15 -12 -15 -21 0 -8 -6 -15 -12 -15 -7 0 -42 -5 -78 -11 -36 -5
-78 -12 -93 -14 -16 -2 -42 -11 -59 -20 -38 -18 -75 -20 -81 -2 -4 9 -6 9 -6
-1 -1 -8 8 -16 19 -19 22 -6 26 -19 8 -25 -8 -3 -5 -14 10 -35 12 -17 22 -37
23 -45 0 -10 2 -10 6 0 6 16 28 15 42 -1 8 -11 7 -18 -7 -31 -10 -9 -21 -14
-24 -11 -8 8 -20 -63 -13 -75 13 -22 32 -10 28 18 -4 25 -3 26 11 8 9 -11 13
-29 10 -46 -5 -24 -2 -29 25 -38 24 -9 31 -8 31 2 0 19 77 43 92 28 8 -8 14
-7 23 4 12 18 99 28 229 28 73 -1 81 -3 95 -25 9 -13 24 -31 33 -41 14 -14 16
-23 8 -43 -6 -16 -6 -25 0 -25 5 0 9 -8 8 -17 -4 -50 2 -63 28 -63 14 0 23 -4
20 -8 -3 -5 -19 -7 -37 -4 l-32 5 8 -39 c4 -21 12 -42 18 -46 9 -6 8 -8 -1 -8
-10 0 -13 -11 -10 -37 3 -33 0 -38 -20 -41 -13 -2 -29 3 -35 11 -7 7 -37 19
-67 26 -52 11 -55 11 -71 -11 -16 -20 -16 -23 4 -50 15 -20 23 -24 28 -16 11
18 17 8 19 -32 3 -61 1 -70 -19 -70 -11 0 -23 -4 -26 -10 -3 -5 -17 -10 -31
-10 -13 0 -24 -5 -24 -11 0 -7 -12 -9 -32 -6 -35 5 -149 -9 -183 -23 -11 -4
-40 -17 -65 -28 -25 -11 -49 -17 -55 -12 -30 23 -165 13 -165 -12 0 -18 -69
-28 -116 -18 -44 10 -50 9 -64 -9 -9 -12 -23 -19 -35 -16 -11 2 -23 4 -27 4
-14 2 -13 76 2 87 9 8 13 26 12 53 -2 33 0 40 13 35 19 -8 33 25 15 36 -15 9
-70 -20 -70 -37 0 -6 -9 -15 -20 -18 -11 -3 -20 -13 -20 -21 0 -33 -117 15
-126 52 -10 38 4 115 24 138 32 38 48 76 34 85 -7 4 -14 20 -15 35 -1 15 -9
31 -17 36 -8 5 -11 12 -7 16 4 4 13 2 19 -4 17 -17 28 -15 22 3 -5 12 3 15 39
15 27 0 49 6 57 15 7 8 19 15 26 15 8 0 14 5 14 11 0 5 5 7 10 4 6 -4 1 -14
-12 -25 l-23 -19 23 -1 c12 0 31 9 42 20 25 25 81 60 96 60 15 0 24 -58 10
-64 -6 -2 -2 -5 9 -5 15 -1 28 16 52 62 49 96 49 130 2 183 -19 20 -19 21 1
42 12 12 16 23 10 27 -6 3 -10 15 -10 25 0 17 -6 18 -55 13 -48 -5 -55 -4 -49
10 4 13 0 15 -25 12 -17 -2 -39 -9 -50 -14 -11 -6 -28 -11 -39 -11 -45 0 -118
60 -107 88 3 7 -4 25 -15 39 -11 14 -20 33 -19 42 0 12 3 11 10 -4 7 -16 8
-14 5 12 -3 19 -1 33 7 37 7 2 2 5 -10 5 -27 1 -28 3 -6 44 9 18 16 37 15 43
-1 6 8 10 20 10 17 -1 24 5 26 22 3 20 0 23 -17 17 -31 -9 -26 12 7 28 15 7
26 19 24 25 -4 20 35 51 56 45 11 -3 29 0 39 6 10 6 12 11 6 11 -7 0 -13 5
-13 12 0 6 3 9 6 5 3 -3 24 5 45 19 21 13 42 24 45 24 4 0 12 7 18 15 6 8 31
16 56 18 25 2 52 7 61 11 10 4 32 -1 55 -13 36 -20 40 -20 51 -5 7 9 10 20 8
24 -2 3 12 6 30 6 21 -1 35 -6 35 -14z m-814 -48 c-10 -14 -20 -23 -23 -20 -3
3 2 17 11 32 10 14 20 23 23 20 3 -3 -2 -17 -11 -32z m1154 -346 c0 -19 -18
-43 -25 -36 -9 9 4 48 16 48 5 0 9 -6 9 -12z m510 -180 c0 -5 -4 -8 -10 -8 -5
0 -10 10 -10 23 0 18 2 19 10 7 5 -8 10 -18 10 -22z m-1340 2 c0 -5 -7 -10
-15 -10 -8 0 -15 5 -15 10 0 6 7 10 15 10 8 0 15 -4 15 -10z m803 -13 c4 -11
-9 -14 -56 -15 -34 -1 -71 2 -82 5 -19 6 -18 7 5 14 45 13 127 10 133 -4z
m491 0 c6 14 10 12 26 -14 10 -17 20 -43 22 -58 2 -23 -3 -31 -29 -44 -18 -9
-33 -22 -33 -28 0 -20 -22 -15 -54 10 -33 27 -31 63 3 52 14 -4 21 0 26 15 8
24 8 22 -20 38 -16 9 -17 11 -4 12 9 0 20 8 24 18 6 16 7 16 20 -1 12 -17 13
-17 19 0z m-417 -91 c3 -3 -1 -6 -9 -6 -9 0 -18 -7 -22 -15 -3 -8 -14 -15 -24
-15 -10 0 -22 -4 -27 -9 -6 -5 -38 -11 -72 -13 l-62 -4 20 28 c19 27 33 33 89
41 36 5 99 1 107 -7z m173 4 c26 -16 4 -21 -31 -6 -31 14 -32 15 -9 15 14 1
32 -3 40 -9z m-1055 -29 c-13 -12 -85 -42 -85 -35 0 11 27 32 46 37 33 8 49 8
39 -2z m-431 -19 c2 -4 7 -24 11 -46 l8 -38 -27 17 c-29 19 -38 75 -12 75 8 0
17 -3 20 -8z m1011 -2 c6 -10 -15 -50 -28 -50 -14 0 -19 30 -7 45 14 17 26 19
35 5z m425 -16 c29 -7 49 -8 57 -2 13 10 38 -26 28 -42 -9 -15 -54 -4 -80 20
-17 16 -35 23 -61 22 -20 -1 -41 1 -46 5 -16 9 15 23 37 16 11 -4 40 -12 65
-19z m364 11 c4 -10 -1 -15 -16 -15 -17 0 -18 2 -8 15 7 8 14 15 15 15 2 0 5
-7 9 -15z m-129 -15 c3 -5 15 -10 26 -10 22 0 24 -12 8 -42 -17 -32 -22 -91
-7 -86 7 3 14 14 16 26 2 12 11 27 21 34 10 7 23 23 30 36 6 12 16 22 21 22
14 0 12 -34 -2 -48 -9 -9 -7 -21 7 -52 l18 -41 -39 -57 c-22 -31 -52 -63 -67
-70 -33 -16 -51 -7 -25 12 15 11 16 15 3 32 -19 26 -19 38 2 30 9 -4 20 -1 25
6 10 17 10 31 -1 24 -5 -3 -14 1 -21 9 -7 8 -16 13 -20 10 -5 -3 -11 21 -15
52 -3 32 -7 73 -10 91 -4 32 15 46 30 22z m-1171 -62 c4 -10 8 -10 11 -2 7 14
45 6 45 -8 0 -6 -9 -8 -20 -5 -11 3 -20 1 -20 -4 0 -5 -6 -9 -14 -9 -7 0 -37
-7 -65 -17 -28 -9 -55 -13 -59 -8 -4 4 -1 10 6 12 6 3 10 9 6 14 -3 5 6 9 21
9 14 0 28 7 31 15 7 18 50 20 58 3z m-165 -117 c-3 -6 -10 -7 -18 -2 -7 5 -10
14 -6 21 9 14 29 -2 24 -19z m-276 -51 c14 -1 41 -36 51 -68 5 -14 13 -21 21
-18 17 6 45 -68 45 -121 0 -23 5 -45 10 -48 6 -3 10 -17 10 -31 0 -35 -35 -31
-74 9 -44 43 -75 131 -81 225 -3 43 -3 71 1 65 3 -7 11 -13 17 -13z m272 -77
c4 -14 2 -23 -4 -23 -6 0 -11 3 -11 8 0 4 -3 18 -6 32 -8 31 11 16 21 -17z
m1175 12 c0 -8 -4 -15 -10 -15 -5 0 -10 7 -10 15 0 8 5 15 10 15 6 0 10 -7 10
-15z m10 -205 c-6 -11 -8 -25 -4 -31 10 -17 -6 -79 -20 -79 -8 0 -16 -17 -20
-42 -8 -49 -21 -68 -47 -68 -23 0 -24 -17 -3 -41 22 -25 24 -50 6 -81 -25 -43
-50 -36 -54 16 -1 14 -8 28 -16 31 -10 3 -10 10 -2 24 14 27 13 41 -5 41 -15
0 -19 -11 -16 -38 1 -8 -3 -20 -10 -28 -9 -11 -9 -17 0 -28 14 -17 0 -29 -23
-20 -13 5 -14 9 -5 20 7 9 7 14 1 14 -5 0 -13 10 -17 23 -6 21 -7 21 -17 -8
-13 -35 -50 -68 -59 -53 -4 6 -12 7 -18 4 -6 -4 -9 -12 -6 -17 4 -5 3 -14 -1
-20 -5 -8 -9 -8 -14 1 -5 8 -13 9 -21 4 -8 -5 -20 -9 -27 -10 -24 -4 -26 -14
-4 -14 12 0 22 -4 22 -9 0 -5 -24 -8 -52 -7 -50 1 -53 0 -53 -24 0 -19 -5 -25
-22 -26 -24 -1 -31 10 -13 21 6 3 10 11 10 17 0 7 -5 7 -14 -1 -8 -6 -20 -10
-27 -9 -9 2 -13 -4 -11 -17 2 -18 2 -18 -8 -2 -6 9 -19 17 -29 17 -25 0 -34
-27 -13 -39 9 -5 13 -13 9 -17 -5 -5 -12 -2 -16 5 -5 7 -20 14 -35 14 -27 2
-27 2 -7 19 20 15 19 16 -25 20 -57 4 -62 -5 -34 -64 26 -55 90 -98 110 -73 7
8 16 12 22 9 5 -3 15 0 23 6 8 7 34 13 57 14 36 1 43 4 46 24 2 12 9 22 15 23
7 1 27 2 45 4 19 1 39 8 45 14 6 6 19 11 29 11 10 0 18 5 18 10 0 6 11 10 24
10 14 0 28 5 31 10 3 6 0 10 -8 10 -8 0 -17 6 -20 13 -3 9 5 12 30 9 22 -3 33
-9 29 -17 -2 -7 1 -18 7 -24 8 -8 6 -11 -8 -12 -19 0 -19 -1 0 -9 11 -5 15 -9
8 -9 -7 -1 -11 -13 -11 -28 1 -16 -1 -46 -5 -68 -6 -30 -5 -36 3 -25 9 12 10
10 4 -10 -4 -14 -7 -36 -8 -50 -1 -17 -7 -26 -22 -28 -21 -3 -27 19 -10 46 4
7 2 12 -7 12 -8 0 -17 7 -21 15 -3 8 -10 15 -17 15 -6 0 -8 -7 -5 -16 4 -10 0
-18 -13 -21 -11 -3 -22 -16 -25 -29 -4 -15 -11 -21 -21 -18 -15 6 -16 -1 -19
-84 -1 -21 -6 -24 -56 -27 -30 -2 -56 -9 -58 -14 -6 -17 -30 12 -25 29 4 11 2
11 -4 3 -9 -13 -77 -13 -89 0 -4 4 -18 7 -30 7 -12 0 -40 17 -61 37 -21 20
-41 36 -44 35 -14 -3 -75 76 -105 133 -39 77 -84 145 -96 145 -5 0 -6 5 -3 10
4 6 11 8 16 5 5 -4 9 3 9 14 0 14 -6 21 -20 21 -22 0 -27 24 -10 50 8 13 11
12 24 -5 14 -18 15 -18 16 -2 0 10 -11 22 -24 27 -16 6 -23 16 -23 35 0 32 33
54 41 27 3 -9 34 -30 69 -45 34 -15 70 -32 79 -37 10 -6 64 -10 122 -10 83 0
118 5 180 25 44 14 100 25 131 25 30 0 55 5 55 10 0 6 -7 10 -16 10 -9 0 -14
6 -11 13 2 6 13 12 25 11 12 0 19 2 17 6 -2 4 23 34 55 68 33 34 62 72 64 84
2 16 9 22 21 20 21 -4 45 -26 45 -41 0 -6 7 -11 16 -11 8 0 12 5 9 10 -11 18
5 31 25 20 17 -9 19 -5 25 45 5 38 12 55 22 55 11 0 11 -4 3 -20z m-348 -157
c22 -20 23 -33 3 -33 -8 0 -15 -6 -15 -14 0 -15 -50 -46 -85 -52 -11 -2 -48
-11 -83 -19 -92 -23 -242 -7 -242 25 0 5 0 13 0 18 0 4 10 8 22 10 13 2 39 6
58 9 19 3 54 6 77 8 23 1 49 10 58 19 19 19 17 19 51 6 22 -9 29 -7 41 10 12
17 18 18 35 9 17 -9 23 -8 30 5 11 20 27 20 50 -1z m-648 -130 c-4 -13 -12
-19 -19 -17 -11 4 -10 9 3 23 21 22 23 21 16 -6z m802 -105 c-9 -5 -24 -7 -34
-5 -12 3 -11 5 6 6 12 0 22 6 22 12 0 5 5 7 11 3 8 -5 6 -10 -5 -16z m95 -41
c-13 -13 -26 -3 -16 12 3 6 11 8 17 5 6 -4 6 -10 -1 -17z m-38 -72 c-3 -8 -9
-15 -14 -15 -10 0 -12 24 -3 33 11 11 24 -3 17 -18z"/>
<path d="M794 3056 c-19 -19 -34 -43 -34 -55 0 -19 2 -19 44 10 25 16 46 34
48 40 6 17 55 14 73 -5 9 -9 22 -16 28 -16 7 0 -3 14 -21 30 -46 43 -93 41
-138 -4z"/>
<path d="M692 3027 c-12 -14 -34 -67 -28 -67 8 0 48 71 44 76 -3 2 -10 -1 -16
-9z"/>
<path d="M787 2949 c-19 -11 -23 -34 -7 -44 6 -3 15 6 20 21 13 32 10 36 -13
23z"/>
<path d="M925 2943 c2 -10 4 -24 4 -31 1 -9 8 -11 24 -6 32 9 32 12 12 34 -22
25 -44 26 -40 3z"/>
<path d="M660 1863 c0 -4 5 -15 10 -23 7 -11 10 -11 10 -2 0 7 5 10 10 7 6 -3
10 -4 10 -1 0 3 -9 10 -20 16 -11 6 -20 7 -20 3z"/>
<path d="M1085 1601 c-6 -11 29 -33 39 -24 7 7 -12 33 -25 33 -4 0 -10 -4 -14
-9z"/>
<path d="M1298 1067 c-29 -11 -35 -32 -17 -57 8 -12 12 -12 16 -2 4 10 8 10
19 1 10 -8 21 -8 44 2 28 13 42 39 20 39 -5 0 -7 7 -4 15 7 18 -35 19 -78 2z"/>
<path d="M1210 1025 c-12 -13 -19 -28 -15 -34 3 -6 1 -11 -4 -11 -6 0 -11 5
-11 10 0 6 -17 10 -39 10 -21 0 -58 7 -81 15 -23 8 -62 15 -86 15 -32 0 -44
-4 -44 -15 0 -8 5 -15 10 -15 6 0 10 -8 10 -17 0 -37 21 -93 35 -93 9 0 12 -6
9 -15 -4 -8 -2 -15 4 -15 5 0 15 7 22 15 7 8 20 15 29 15 9 1 27 10 40 21 21
17 23 22 10 31 -11 8 -10 9 4 4 10 -3 39 -6 63 -6 26 0 43 -4 39 -10 -3 -5
-13 -7 -23 -4 -9 3 -6 -2 8 -10 14 -8 36 -15 49 -16 18 0 22 4 18 20 -3 11 -1
23 4 26 21 12 -5 26 -40 20 -20 -3 -31 -2 -26 2 21 14 55 71 47 76 -5 3 -19
-5 -32 -19z"/>
<path d="M1410 326 c0 -8 5 -18 10 -21 6 -3 10 1 10 9 0 8 -4 18 -10 21 -5 3
-10 -1 -10 -9z"/>
</g>
</svg>
